<svg width="84" height="59" xml:space="preserve" xmlns="http://www.w3.org/2000/svg"><path style="fill:#000" d="M12.315 1C21.96.037 32.099 0 42 0c9.9 0 20.725-.037 29.685 1 7.276.842 10.4 4.151 11.315 11.315.745 5.828 1 11.447 1 17.185 0 5.738-.33 11.736-1 17.185C82.003 54.799 79.942 57.06 71.685 58 61.958 59.105 51.901 59 42 59c-9.9 0-19.696.06-29.685-1C3.773 57.092 2.4 54.424 1 46.685.007 41.195 0 35.238 0 29.5c0-5.738.075-11.563 1-17.185C2.194 5.057 4.415 1.79 12.315 1z"/><path style="fill:#fff" d="m33.24 41.294 22.66-11.77-22.66-11.82z"/><path style="fill:#cc181e" d="M12.315 60c9.645-.963 19.784-1 29.685-1 9.9 0 20.725-.037 29.685 1 7.276.842 10.4 4.152 11.315 11.315.745 5.828 1 11.447 1 17.185 0 5.738-.33 11.736-1 17.185-.997 8.114-3.058 10.377-11.315 11.315-9.727 1.105-19.784 1-29.685 1-9.9 0-19.696.06-29.685-1C3.773 116.092 2.4 113.425 1 105.685c-.993-5.49-1-11.447-1-17.185 0-5.738.075-11.562 1-17.185C2.194 64.057 4.415 60.79 12.315 60z"/><path style="fill:#fff" d="m33.24 100.294 22.66-11.77-22.66-11.82z"/></svg>